<?xml version="1.0" standalone="no"?><!DOCTYPE svg PUBLIC "-//W3C//DTD SVG 1.1//EN" "http://www.w3.org/Graphics/SVG/1.1/DTD/svg11.dtd"><svg t="1753519859871" class="icon" viewBox="0 0 1024 1024" version="1.1" xmlns="http://www.w3.org/2000/svg" p-id="2765" xmlns:xlink="http://www.w3.org/1999/xlink" width="200" height="200"><path d="M868.864 474.154667c0-174.08-143.488-316.501333-318.848-316.501334h-69.76c-175.36 0-318.848 142.421333-318.848 316.501334v257.109333c0 31.872 25.813333 57.685333 57.685333 57.685333 12.885333 43.904 36.096 76.202667 84.266667 76.202667h52.949333a35.328 35.328 0 0 0 35.413334-34.986667l1.365333-269.141333a35.328 35.328 0 0 0-35.413333-35.328H303.36c-17.792 0-34.602667 4.48-49.408 12.245333v-69.248c0-125.738667 103.594667-228.608 230.272-228.608h64.085333c126.677333 0 230.272 102.869333 230.272 228.608v70.485334c-15.36-8.533333-32.981333-13.482667-51.712-13.482667h-54.314666a35.328 35.328 0 0 0-35.413334 35.328l1.365334 269.141333c0.128 19.370667 15.957333 34.986667 35.413333 34.986667h52.949333c48.213333 0 71.424-32.298667 84.309334-76.202667 31.829333 0 57.685333-25.813333 57.685333-57.685333v-257.109333z" fill="#59E0F9" p-id="2766"></path><path d="M218.282667 649.642667c0-45.866667 0-68.821333 8.917333-86.357334a81.92 81.92 0 0 1 35.797333-35.797333c17.493333-8.917333 40.448-8.917333 86.357334-8.917333h18.346666c22.912 0 34.389333 0 43.136 4.48a40.96 40.96 0 0 1 17.92 17.92c4.437333 8.746667 4.437333 20.181333 4.437334 43.136v215.509333c0 22.954667 0 34.432-4.437334 43.178667a40.96 40.96 0 0 1-17.92 17.92c-8.746667 4.437333-20.224 4.437333-43.178666 4.437333h-18.346667c-45.866667 0-45.866667 0-86.314667-8.917333a81.92 81.92 0 0 1-35.84-35.797334c-8.874667-17.493333-8.874667-40.448-8.874666-86.357333v-84.437333zM811.946667 649.642667c0-45.866667 0-68.821333-8.917334-86.357334a81.92 81.92 0 0 0-35.797333-35.797333c-17.493333-8.917333-40.448-8.917333-86.314667-8.917333h-18.432c-22.954667 0-34.432 0-43.178666 4.48a40.96 40.96 0 0 0-17.92 17.92c-4.437333 8.746667-4.437333 20.181333-4.437334 43.136v215.509333c0 22.954667 0 34.432 4.437334 43.178667a40.96 40.96 0 0 0 17.92 17.92c8.746667 4.437333 20.224 4.437333 43.178666 4.437333h18.432c45.866667 0 45.866667 0 86.314667-8.917333a81.92 81.92 0 0 0 35.84-35.797334c8.917333-17.493333 8.917333-40.448 8.917333-86.357333v-84.437333z" fill="#00B9E7" p-id="2767"></path><path d="M597.333333 549.290667a40.96 40.96 0 0 1 81.962667 0v285.141333a40.96 40.96 0 1 1-81.962667 0v-285.141333zM351.573333 549.290667a40.96 40.96 0 1 1 81.962667 0v285.141333a40.96 40.96 0 0 1-81.962667 0v-285.141333z" fill="#FDDE80" p-id="2768"></path></svg>